<?xml version="1.0" standalone="no"?><!DOCTYPE svg PUBLIC "-//W3C//DTD SVG 1.1//EN" "http://www.w3.org/Graphics/SVG/1.1/DTD/svg11.dtd"><svg t="1571027915319" class="icon" viewBox="0 0 1024 1024" version="1.1" xmlns="http://www.w3.org/2000/svg" p-id="3608" xmlns:xlink="http://www.w3.org/1999/xlink" width="25" height="25"><defs><style type="text/css"></style></defs><path d="M754.714127 540.65462c-0.977297-113.176642 92.377635-167.599136 96.794406-170.231079-52.601117-76.964906-134.578466-87.534636-163.871806-88.765673-69.664424-7.046486-135.849464 41.049928-171.213305 41.049928-35.365888 0-89.876573-40.031738-147.697789-38.97057-75.990762 1.062192-145.911023 44.192501-185.053065 112.11445-78.920608 136.864134-20.165075 339.652723 56.674043 450.759217 37.571203 54.337559 82.402038 115.425869 141.284466 113.219621 56.717023-2.25025 78.114209-36.678364 146.6376-36.678364 68.433336 0 87.750055 36.678364 147.651738 35.530215 60.877957-1.102101 99.637267-55.440683 136.868719-109.948111 43.131054-63.049988 60.708081-124.052341 61.896188-127.236869C873.371342 721.115692 755.860277 676.073846 754.714127 540.65462M641.999494 208.216205c31.288869-37.865399 52.34528-90.505293 46.529593-142.891408-45.000711 1.825578-99.467391 29.971615-131.817472 67.837015-28.953589 33.493835-54.297828 87.069031-47.419906 138.434909C559.429627 275.417747 610.79761 245.998717 641.999494 208.216205" fill="#e6e6e6" p-id="3609"></path></svg>